<svg width="98" height="17" viewBox="0 0 98 17" fill="none" xmlns="http://www.w3.org/2000/svg">
<path d="M0.150879 3.82812C0.484212 3.91146 0.801921 3.97396 1.104 4.01562C1.40609 4.05729 1.67171 4.08854 1.90088 4.10938C2.17171 4.14062 2.42171 4.15104 2.65088 4.14062C2.94255 4.14062 3.30713 4.11458 3.74463 4.0625C4.19255 4.01042 4.65088 3.96354 5.11963 3.92188C5.58838 3.86979 6.0363 3.83854 6.46338 3.82812C6.90088 3.80729 7.25505 3.83333 7.52588 3.90625C7.79671 3.96875 8.07275 4.06771 8.354 4.20312C8.64567 4.32812 8.9113 4.48958 9.15088 4.6875C9.39046 4.875 9.58838 5.09896 9.74463 5.35938C9.90088 5.60938 9.98942 5.89583 10.0103 6.21875C9.99984 6.625 9.90609 7.00521 9.729 7.35938C9.58317 7.66146 9.33838 7.97396 8.99463 8.29688C8.65088 8.60938 8.15609 8.84896 7.51025 9.01562C7.83317 9.05729 8.10921 9.13021 8.33838 9.23438C8.57796 9.32812 8.78109 9.44271 8.94775 9.57812C9.12484 9.70312 9.26546 9.84375 9.36963 10C9.48421 10.1562 9.57275 10.3125 9.63525 10.4688C9.7915 10.8333 9.86442 11.2396 9.854 11.6875C9.7915 12.2708 9.67171 12.7344 9.49463 13.0781C9.32796 13.4219 9.13525 13.6875 8.9165 13.875C8.69775 14.0625 8.4738 14.1927 8.24463 14.2656C8.01546 14.3385 7.80713 14.3958 7.61963 14.4375C7.43213 14.4792 7.20296 14.5 6.93213 14.5C6.6613 14.5 6.36963 14.4948 6.05713 14.4844C5.75505 14.4635 5.44255 14.4479 5.11963 14.4375C4.79671 14.4167 4.48942 14.4167 4.19775 14.4375C3.95817 14.4583 3.6665 14.4792 3.32275 14.5C3.03109 14.5208 2.6665 14.5469 2.229 14.5781C1.7915 14.599 1.28109 14.625 0.697754 14.6562C0.812337 14.5729 0.906087 14.4792 0.979004 14.375C1.06234 14.2604 1.13005 14.1615 1.18213 14.0781C1.23421 13.974 1.28109 13.875 1.32275 13.7812C1.354 13.6979 1.38005 13.4688 1.40088 13.0938C1.42171 12.7188 1.43734 12.2708 1.44775 11.75C1.45817 11.2188 1.46338 10.651 1.46338 10.0469C1.4738 9.43229 1.46859 8.84375 1.44775 8.28125C1.43734 7.70833 1.4165 7.20312 1.38525 6.76562C1.36442 6.31771 1.33317 5.99479 1.2915 5.79688C1.229 5.57812 1.14567 5.35417 1.0415 5.125C0.958171 4.92708 0.838379 4.71354 0.682129 4.48438C0.536296 4.25521 0.359212 4.03646 0.150879 3.82812ZM3.44775 5.42188C3.44775 5.46354 3.45296 5.60417 3.46338 5.84375C3.4738 6.05208 3.48421 6.375 3.49463 6.8125C3.51546 7.23958 3.5415 7.84896 3.57275 8.64062C3.83317 8.75521 4.08838 8.81771 4.33838 8.82812C4.58838 8.82812 4.81234 8.81771 5.01025 8.79688C5.23942 8.76562 5.45817 8.71354 5.6665 8.64062C5.94775 8.52604 6.1665 8.33854 6.32275 8.07812C6.48942 7.81771 6.5988 7.54688 6.65088 7.26562C6.71338 6.97396 6.729 6.70312 6.69775 6.45312C6.6665 6.19271 6.5988 6.00521 6.49463 5.89062C6.29671 5.71354 6.05192 5.56771 5.76025 5.45312C5.51025 5.35938 5.19255 5.29688 4.80713 5.26562C4.43213 5.22396 3.979 5.27604 3.44775 5.42188ZM3.36963 12.8281C3.75505 13.026 4.09359 13.1562 4.38525 13.2188C4.67692 13.2812 4.92171 13.3125 5.11963 13.3125C5.3488 13.3125 5.54671 13.2812 5.71338 13.2188C5.9113 13.125 6.104 13 6.2915 12.8438C6.48942 12.6771 6.63525 12.4844 6.729 12.2656C6.83317 12.0365 6.87484 11.7865 6.854 11.5156C6.83317 11.2344 6.71338 10.9271 6.49463 10.5938C6.29671 10.3542 6.05713 10.1667 5.77588 10.0312C5.52588 9.91667 5.20817 9.84375 4.82275 9.8125C4.44775 9.78125 3.98421 9.86979 3.43213 10.0781L3.36963 12.8281ZM14.9165 8C15.1873 8 15.4686 8.05208 15.7603 8.15625C16.0519 8.25 16.3332 8.375 16.604 8.53125C16.8748 8.67708 17.1196 8.83854 17.3384 9.01562C17.5675 9.18229 17.755 9.34375 17.9009 9.5C18.1613 9.78125 18.3384 10.1615 18.4321 10.6406C18.5363 11.1094 18.5571 11.5938 18.4946 12.0938C18.4321 12.5833 18.2863 13.0469 18.0571 13.4844C17.828 13.9219 17.5103 14.2448 17.104 14.4531C16.8123 14.599 16.5259 14.7135 16.2446 14.7969C15.9634 14.8802 15.6925 14.9427 15.4321 14.9844C15.1717 15.026 14.9269 15.0469 14.6978 15.0469C14.4686 15.0469 14.2707 15.0417 14.104 15.0312C13.7915 15.0104 13.4634 14.901 13.1196 14.7031C12.7863 14.5052 12.4686 14.2604 12.1665 13.9688C11.8748 13.6771 11.6248 13.3594 11.4165 13.0156C11.2082 12.6615 11.0832 12.3281 11.0415 12.0156C10.979 11.5885 10.9686 11.1406 11.0103 10.6719C11.0519 10.2031 11.203 9.77083 11.4634 9.375C11.7342 8.97917 12.1405 8.65104 12.6821 8.39062C13.2342 8.13021 13.979 8 14.9165 8ZM14.4009 14.0625C14.5155 14.0833 14.6717 14.0573 14.8696 13.9844C15.0675 13.901 15.2603 13.7708 15.4478 13.5938C15.6457 13.4167 15.8175 13.1927 15.9634 12.9219C16.1196 12.6406 16.2134 12.3021 16.2446 11.9062C16.2759 11.5208 16.2759 11.1667 16.2446 10.8438C16.2238 10.5208 16.1769 10.2396 16.104 10C16.0311 9.75 15.9478 9.54688 15.854 9.39062C15.7603 9.23438 15.6613 9.125 15.5571 9.0625C15.38 8.96875 15.1665 8.89583 14.9165 8.84375C14.6665 8.78125 14.453 8.79167 14.2759 8.875C14.1925 8.91667 14.0884 9.00521 13.9634 9.14062C13.8384 9.27604 13.7134 9.44792 13.5884 9.65625C13.4634 9.85417 13.3488 10.0833 13.2446 10.3438C13.1509 10.6042 13.0832 10.875 13.0415 11.1562C12.9998 11.4375 12.9894 11.7396 13.0103 12.0625C13.0415 12.3854 13.1092 12.6927 13.2134 12.9844C13.3175 13.2656 13.4634 13.5104 13.6509 13.7188C13.8488 13.9167 14.0988 14.0312 14.4009 14.0625ZM23.4321 8C23.703 8 23.9842 8.05208 24.2759 8.15625C24.5675 8.25 24.8488 8.375 25.1196 8.53125C25.3905 8.67708 25.6353 8.83854 25.854 9.01562C26.0832 9.18229 26.2707 9.34375 26.4165 9.5C26.6769 9.78125 26.854 10.1615 26.9478 10.6406C27.0519 11.1094 27.0728 11.5938 27.0103 12.0938C26.9478 12.5833 26.8019 13.0469 26.5728 13.4844C26.3436 13.9219 26.0259 14.2448 25.6196 14.4531C25.328 14.599 25.0415 14.7135 24.7603 14.7969C24.479 14.8802 24.2082 14.9427 23.9478 14.9844C23.6873 15.026 23.4425 15.0469 23.2134 15.0469C22.9842 15.0469 22.7863 15.0417 22.6196 15.0312C22.3071 15.0104 21.979 14.901 21.6353 14.7031C21.3019 14.5052 20.9842 14.2604 20.6821 13.9688C20.3905 13.6771 20.1405 13.3594 19.9321 13.0156C19.7238 12.6615 19.5988 12.3281 19.5571 12.0156C19.4946 11.5885 19.4842 11.1406 19.5259 10.6719C19.5675 10.2031 19.7186 9.77083 19.979 9.375C20.2498 8.97917 20.6561 8.65104 21.1978 8.39062C21.7498 8.13021 22.4946 8 23.4321 8ZM22.9165 14.0625C23.0311 14.0833 23.1873 14.0573 23.3853 13.9844C23.5832 13.901 23.7759 13.7708 23.9634 13.5938C24.1613 13.4167 24.3332 13.1927 24.479 12.9219C24.6353 12.6406 24.729 12.3021 24.7603 11.9062C24.7915 11.5208 24.7915 11.1667 24.7603 10.8438C24.7394 10.5208 24.6925 10.2396 24.6196 10C24.5467 9.75 24.4634 9.54688 24.3696 9.39062C24.2759 9.23438 24.1769 9.125 24.0728 9.0625C23.8957 8.96875 23.6821 8.89583 23.4321 8.84375C23.1821 8.78125 22.9686 8.79167 22.7915 8.875C22.7082 8.91667 22.604 9.00521 22.479 9.14062C22.354 9.27604 22.229 9.44792 22.104 9.65625C21.979 9.85417 21.8644 10.0833 21.7603 10.3438C21.6665 10.6042 21.5988 10.875 21.5571 11.1562C21.5155 11.4375 21.505 11.7396 21.5259 12.0625C21.5571 12.3854 21.6248 12.6927 21.729 12.9844C21.8332 13.2656 21.979 13.5104 22.1665 13.7188C22.3644 13.9167 22.6144 14.0312 22.9165 14.0625ZM27.604 3.73438C27.7186 3.78646 27.854 3.82292 28.0103 3.84375C28.1769 3.86458 28.3332 3.875 28.479 3.875C28.6561 3.875 28.8384 3.86979 29.0259 3.85938C29.2134 3.84896 29.4425 3.82812 29.7134 3.79688C29.9321 3.77604 30.203 3.75 30.5259 3.71875C30.8488 3.6875 31.2082 3.64583 31.604 3.59375C31.4582 3.66667 31.3332 3.74479 31.229 3.82812C31.1248 3.91146 31.0363 3.99479 30.9634 4.07812C30.88 4.17188 30.8123 4.26562 30.7603 4.35938C30.6873 4.48438 30.5884 4.70312 30.4634 5.01562C30.3488 5.31771 30.229 5.65625 30.104 6.03125C29.9894 6.40625 29.8853 6.78646 29.7915 7.17188C29.7082 7.55729 29.6613 7.88542 29.6509 8.15625C29.6405 8.38542 29.63 8.64583 29.6196 8.9375C29.6092 9.1875 29.5988 9.49479 29.5884 9.85938C29.578 10.224 29.5675 10.6406 29.5571 11.1094C30.3071 10.5677 30.8853 10.1354 31.2915 9.8125C31.6978 9.47917 31.9946 9.22396 32.1821 9.04688C32.4009 8.84896 32.5311 8.70833 32.5728 8.625C32.5623 8.5625 32.5363 8.49479 32.4946 8.42188C32.4425 8.35938 32.3696 8.28646 32.2759 8.20312C32.1821 8.11979 32.0415 8.02604 31.854 7.92188C32.1248 7.95312 32.3592 7.97396 32.5571 7.98438C32.7655 7.99479 32.9425 8.00521 33.0884 8.01562C33.255 8.02604 33.4009 8.02604 33.5259 8.01562C33.6613 8.01562 33.828 8.01042 34.0259 8C34.3696 7.98958 34.9009 7.97396 35.6196 7.95312C34.9217 8.31771 34.3696 8.63021 33.9634 8.89062C33.7342 9.03646 33.5311 9.17188 33.354 9.29688C33.1769 9.43229 32.9946 9.57292 32.8071 9.71875C32.6405 9.84375 32.4478 9.98958 32.229 10.1562C32.0207 10.3229 31.8123 10.5 31.604 10.6875C31.9686 11.2812 32.2863 11.7708 32.5571 12.1562C32.8384 12.5417 33.0728 12.8542 33.2603 13.0938C33.479 13.375 33.6717 13.599 33.8384 13.7656C34.005 13.9219 34.2238 14.099 34.4946 14.2969C34.7238 14.474 35.0207 14.6823 35.3853 14.9219C35.7603 15.151 36.2134 15.4167 36.7446 15.7188C36.4738 15.6667 36.2134 15.6302 35.9634 15.6094C35.7134 15.599 35.4998 15.599 35.3228 15.6094C35.104 15.6198 34.9061 15.6406 34.729 15.6719C34.5415 15.7135 34.3332 15.7656 34.104 15.8281C33.9061 15.8802 33.6717 15.9479 33.4009 16.0312C33.1405 16.125 32.854 16.2448 32.5415 16.3906C32.7394 16.2448 32.8853 16.1042 32.979 15.9688C33.0832 15.8438 33.1561 15.7396 33.1978 15.6562C33.2394 15.5521 33.255 15.4635 33.2446 15.3906C33.1925 15.2865 33.0728 15.0729 32.8853 14.75C32.7082 14.4792 32.4478 14.0833 32.104 13.5625C31.7603 13.0417 31.2707 12.3333 30.6353 11.4375C30.604 11.4479 30.5519 11.4792 30.479 11.5312C30.4165 11.5833 30.3228 11.6562 30.1978 11.75C30.0728 11.8333 29.9061 11.9583 29.6978 12.125L30.1196 14.8594C30.0259 14.901 29.9217 14.9375 29.8071 14.9688C29.703 15 29.604 15.026 29.5103 15.0469C29.3957 15.0781 29.2811 15.099 29.1665 15.1094C29.0519 15.1198 28.9165 15.1406 28.7603 15.1719C28.6248 15.1927 28.4634 15.2188 28.2759 15.25C28.0884 15.2917 27.8748 15.3385 27.6353 15.3906C27.7707 15.2969 27.88 15.1875 27.9634 15.0625C28.0467 14.9479 28.1144 14.8385 28.1665 14.7344C28.2186 14.6198 28.2655 14.5 28.3071 14.375C28.328 14.2708 28.3488 14 28.3696 13.5625C28.4009 13.125 28.4269 12.6042 28.4478 12C28.4686 11.3854 28.4842 10.7292 28.4946 10.0312C28.5155 9.33333 28.5259 8.67708 28.5259 8.0625C28.5259 7.4375 28.5207 6.89583 28.5103 6.4375C28.4998 5.96875 28.479 5.66667 28.4478 5.53125C28.3957 5.36458 28.3332 5.1875 28.2603 5C28.1978 4.83333 28.1092 4.64583 27.9946 4.4375C27.8905 4.21875 27.7603 3.98438 27.604 3.73438ZM50.8804 4.29688C51.1095 4.17188 51.37 4.0625 51.6616 3.96875C51.9533 3.86458 52.2554 3.78646 52.5679 3.73438C52.8804 3.67188 53.1929 3.63542 53.5054 3.625C53.8283 3.61458 54.1304 3.64062 54.4116 3.70312C55.2345 3.88021 55.9272 4.21875 56.4897 4.71875C57.0522 5.21875 57.4845 5.80208 57.7866 6.46875C58.0991 7.13542 58.2814 7.85417 58.3335 8.625C58.396 9.38542 58.3335 10.1198 58.146 10.8281C58.0835 11.0365 57.9793 11.276 57.8335 11.5469C57.7085 11.776 57.5366 12.0573 57.3179 12.3906C57.0991 12.7135 56.8127 13.0729 56.4585 13.4688C56.5418 13.6562 56.6252 13.8073 56.7085 13.9219C56.8022 14.026 56.8908 14.1042 56.9741 14.1562C57.0679 14.2188 57.1564 14.2604 57.2397 14.2812C57.3231 14.2917 57.422 14.2969 57.5366 14.2969C57.6304 14.2969 57.7397 14.2917 57.8647 14.2812C58.0002 14.2604 58.146 14.2292 58.3022 14.1875L55.8647 16.2188C55.8335 16.0521 55.797 15.9062 55.7554 15.7812C55.7241 15.6667 55.6981 15.5677 55.6772 15.4844L55.5835 15.25C55.5418 15.1979 55.5002 15.1302 55.4585 15.0469C55.4168 14.9844 55.37 14.9062 55.3179 14.8125C55.2658 14.7188 55.1981 14.6146 55.1147 14.5C54.4585 14.75 53.8595 14.9115 53.3179 14.9844C52.7866 15.0573 52.3022 15.0625 51.8647 15C51.4272 14.9479 51.0366 14.849 50.6929 14.7031C50.3491 14.5469 50.047 14.3698 49.7866 14.1719C49.1825 13.7031 48.7085 13.0885 48.3647 12.3281C47.9793 11.2865 47.8022 10.3333 47.8335 9.46875C47.8752 8.59375 48.0418 7.81771 48.3335 7.14062C48.6252 6.45312 49.0002 5.86979 49.4585 5.39062C49.9272 4.91146 50.4012 4.54688 50.8804 4.29688ZM53.1929 12.2344C53.0366 12.1927 52.8908 12.1771 52.7554 12.1875C52.6408 12.1979 52.5262 12.2344 52.4116 12.2969C52.297 12.3594 52.2137 12.474 52.1616 12.6406C52.297 12.776 52.422 12.8906 52.5366 12.9844C52.6616 13.0677 52.7658 13.1354 52.8491 13.1875C52.9533 13.25 53.047 13.3021 53.1304 13.3438C53.2762 13.3958 53.422 13.4375 53.5679 13.4688C53.6929 13.4896 53.8283 13.5 53.9741 13.5C54.1304 13.4896 54.2762 13.4479 54.4116 13.375C54.3075 13.1562 54.1825 12.974 54.0366 12.8281C53.9012 12.6719 53.771 12.5521 53.646 12.4688C53.5002 12.3646 53.3491 12.2865 53.1929 12.2344ZM51.5366 11.6719C51.7137 11.401 51.9064 11.2083 52.1147 11.0938C52.3231 10.9792 52.521 10.8958 52.7085 10.8438C52.9272 10.8021 53.1512 10.7865 53.3804 10.7969C53.5991 10.849 53.8179 10.9375 54.0366 11.0625C54.2241 11.1771 54.422 11.3385 54.6304 11.5469C54.8387 11.7448 55.0314 12.0156 55.2085 12.3594C55.3752 12.1094 55.5002 11.849 55.5835 11.5781C55.6668 11.3073 55.7293 11.0625 55.771 10.8438C55.8127 10.5833 55.8335 10.3281 55.8335 10.0781C55.8127 9.69271 55.771 9.28646 55.7085 8.85938C55.646 8.43229 55.5522 8.01042 55.4272 7.59375C55.3127 7.17708 55.1668 6.78125 54.9897 6.40625C54.8127 6.03125 54.5991 5.70833 54.3491 5.4375C54.1095 5.16667 53.8283 4.96354 53.5054 4.82812C53.1929 4.69271 52.8387 4.65625 52.4429 4.71875C52.0054 4.78125 51.646 4.95833 51.3647 5.25C51.0939 5.54167 50.8804 5.88542 50.7241 6.28125C50.5783 6.66667 50.4845 7.08333 50.4429 7.53125C50.4116 7.96875 50.4168 8.36458 50.4585 8.71875C50.4897 9.01042 50.5522 9.31771 50.646 9.64062C50.7293 9.91146 50.8387 10.224 50.9741 10.5781C51.1095 10.9323 51.297 11.2969 51.5366 11.6719ZM59.1616 7.8125C59.4325 7.86458 59.6668 7.90625 59.8647 7.9375C60.0731 7.95833 60.2502 7.97917 60.396 8C60.5627 8.02083 60.7085 8.03646 60.8335 8.04688C60.9585 8.05729 61.1043 8.06771 61.271 8.07812C61.5522 8.08854 61.9481 8.08854 62.4585 8.07812C62.1564 8.05729 61.9168 8.13542 61.7397 8.3125C61.5731 8.47917 61.4481 8.67188 61.3647 8.89062C61.2606 9.15104 61.2033 9.45312 61.1929 9.79688C61.172 10.2552 61.1825 10.6719 61.2241 11.0469C61.2762 11.4115 61.3647 11.724 61.4897 11.9844C61.6252 12.2344 61.8022 12.4219 62.021 12.5469C62.2397 12.6615 62.521 12.6927 62.8647 12.6406C63.2085 12.5885 63.4689 12.4688 63.646 12.2812C63.8335 12.0833 63.9689 11.8438 64.0522 11.5625C64.1356 11.2708 64.1825 10.9427 64.1929 10.5781C64.2137 10.2135 64.2293 9.83333 64.2397 9.4375C64.2397 9.04167 64.2345 8.76042 64.2241 8.59375C64.2241 8.41667 64.2189 8.30208 64.2085 8.25C64.1981 8.19792 64.1825 8.17708 64.1616 8.1875C64.1408 8.1875 64.1147 8.16146 64.0835 8.10938C64.0627 8.06771 64.0314 8.02604 63.9897 7.98438C63.9585 7.94271 63.9168 7.89583 63.8647 7.84375C63.8127 7.78125 63.7554 7.71875 63.6929 7.65625C63.9637 7.66667 64.2033 7.67708 64.4116 7.6875C64.6304 7.6875 64.8127 7.69271 64.9585 7.70312C65.1252 7.71354 65.271 7.72396 65.396 7.73438C65.5106 7.74479 65.6616 7.76042 65.8491 7.78125C66.0054 7.80208 66.2085 7.82292 66.4585 7.84375C66.7085 7.86458 67.0054 7.89583 67.3491 7.9375C67.1095 7.98958 66.9168 8.06771 66.771 8.17188C66.6252 8.27604 66.5106 8.38021 66.4272 8.48438C66.3335 8.59896 66.2658 8.72396 66.2241 8.85938C66.1929 9.03646 66.1929 9.30729 66.2241 9.67188C66.245 9.99479 66.297 10.4375 66.3804 11C66.4637 11.5625 66.5939 12.3021 66.771 13.2188L65.5366 13.9531L65.2866 11.875C64.9845 12.3854 64.6616 12.7812 64.3179 13.0625C63.9845 13.3333 63.672 13.5312 63.3804 13.6562C63.0366 13.8021 62.7033 13.8854 62.3804 13.9062C61.9533 13.9062 61.5835 13.8802 61.271 13.8281C60.9689 13.7656 60.7085 13.6875 60.4897 13.5938C60.271 13.5 60.0939 13.3958 59.9585 13.2812C59.8335 13.1562 59.7397 13.0312 59.6772 12.9062C59.5314 12.6458 59.4533 12.3125 59.4429 11.9062C59.4325 11.4896 59.4481 11.0781 59.4897 10.6719C59.5314 10.2552 59.5783 9.875 59.6304 9.53125C59.6825 9.1875 59.6981 8.95312 59.6772 8.82812C59.6564 8.73438 59.6252 8.63021 59.5835 8.51562C59.5418 8.42188 59.4897 8.31771 59.4272 8.20312C59.3647 8.07812 59.2762 7.94792 59.1616 7.8125ZM71.771 8C72.0418 8 72.3231 8.05208 72.6147 8.15625C72.9064 8.25 73.1877 8.375 73.4585 8.53125C73.7293 8.67708 73.9741 8.83854 74.1929 9.01562C74.422 9.18229 74.6095 9.34375 74.7554 9.5C75.0158 9.78125 75.1929 10.1615 75.2866 10.6406C75.3908 11.1094 75.4116 11.5938 75.3491 12.0938C75.2866 12.5833 75.1408 13.0469 74.9116 13.4844C74.6825 13.9219 74.3647 14.2448 73.9585 14.4531C73.6668 14.599 73.3804 14.7135 73.0991 14.7969C72.8179 14.8802 72.547 14.9427 72.2866 14.9844C72.0262 15.026 71.7814 15.0469 71.5522 15.0469C71.3231 15.0469 71.1252 15.0417 70.9585 15.0312C70.646 15.0104 70.3179 14.901 69.9741 14.7031C69.6408 14.5052 69.3231 14.2604 69.021 13.9688C68.7293 13.6771 68.4793 13.3594 68.271 13.0156C68.0627 12.6615 67.9377 12.3281 67.896 12.0156C67.8335 11.5885 67.8231 11.1406 67.8647 10.6719C67.9064 10.2031 68.0575 9.77083 68.3179 9.375C68.5887 8.97917 68.995 8.65104 69.5366 8.39062C70.0887 8.13021 70.8335 8 71.771 8ZM71.2554 14.0625C71.37 14.0833 71.5262 14.0573 71.7241 13.9844C71.922 13.901 72.1147 13.7708 72.3022 13.5938C72.5002 13.4167 72.672 13.1927 72.8179 12.9219C72.9741 12.6406 73.0679 12.3021 73.0991 11.9062C73.1304 11.5208 73.1304 11.1667 73.0991 10.8438C73.0783 10.5208 73.0314 10.2396 72.9585 10C72.8856 9.75 72.8022 9.54688 72.7085 9.39062C72.6147 9.23438 72.5158 9.125 72.4116 9.0625C72.2345 8.96875 72.021 8.89583 71.771 8.84375C71.521 8.78125 71.3075 8.79167 71.1304 8.875C71.047 8.91667 70.9429 9.00521 70.8179 9.14062C70.6929 9.27604 70.5679 9.44792 70.4429 9.65625C70.3179 9.85417 70.2033 10.0833 70.0991 10.3438C70.0054 10.6042 69.9377 10.875 69.896 11.1562C69.8543 11.4375 69.8439 11.7396 69.8647 12.0625C69.896 12.3854 69.9637 12.6927 70.0679 12.9844C70.172 13.2656 70.3179 13.5104 70.5054 13.7188C70.7033 13.9167 70.9533 14.0312 71.2554 14.0625ZM75.9116 5.15625C76.2241 5.1875 76.4845 5.21354 76.6929 5.23438C76.9116 5.25521 77.0887 5.27083 77.2241 5.28125C77.3804 5.29167 77.5054 5.29688 77.5991 5.29688C77.6929 5.30729 77.8179 5.30729 77.9741 5.29688C78.1095 5.28646 78.2866 5.27604 78.5054 5.26562C78.7241 5.24479 79.0002 5.21354 79.3335 5.17188C79.2606 5.27604 79.2033 5.36979 79.1616 5.45312C79.12 5.52604 79.0835 5.59375 79.0522 5.65625L78.9585 5.84375C78.9377 5.90625 78.9168 5.96875 78.896 6.03125C78.8752 6.08333 78.8543 6.14583 78.8335 6.21875C78.8231 6.29167 78.8127 6.36979 78.8022 6.45312H81.2085L80.9897 7.71875L78.7866 7.59375C78.7345 8.125 78.6981 8.53646 78.6772 8.82812C78.6564 9.11979 78.6356 9.33333 78.6147 9.46875L78.5835 9.75C78.5522 10.1458 78.521 10.5781 78.4897 11.0469C78.4585 11.5052 78.4481 11.9323 78.4585 12.3281C78.4689 12.724 78.5054 13.0573 78.5679 13.3281C78.6304 13.5885 78.7397 13.7188 78.896 13.7188C79.0522 13.7188 79.1981 13.6771 79.3335 13.5938C79.4689 13.5104 79.5835 13.4115 79.6772 13.2969C79.7814 13.1823 79.8595 13.0677 79.9116 12.9531C79.9637 12.8281 79.9897 12.7344 79.9897 12.6719C79.9897 12.6094 79.9741 12.5365 79.9429 12.4531C79.8908 12.2969 79.797 12.099 79.6616 11.8594C79.9637 11.9323 80.2293 12.0052 80.4585 12.0781C80.5731 12.1198 80.6772 12.1615 80.771 12.2031C80.8752 12.2448 80.995 12.2917 81.1304 12.3438C81.245 12.3958 81.3908 12.4583 81.5679 12.5312C81.745 12.6042 81.9533 12.6927 82.1929 12.7969C81.9637 12.8385 81.797 12.9062 81.6929 13C81.6304 13.0417 81.5835 13.0885 81.5522 13.1406C81.4793 13.2552 81.396 13.4115 81.3022 13.6094C81.2085 13.7969 81.0679 13.9844 80.8804 14.1719C80.6929 14.3594 80.4377 14.526 80.1147 14.6719C79.8022 14.8177 79.3804 14.901 78.8491 14.9219C78.297 14.9427 77.8752 14.849 77.5835 14.6406C77.3022 14.4323 77.0939 14.1927 76.9585 13.9219C76.8335 13.6406 76.7606 13.3646 76.7397 13.0938C76.7189 12.8229 76.7033 12.6406 76.6929 12.5469C76.6825 12.4531 76.6825 12.2188 76.6929 11.8438C76.7033 11.4688 76.7189 11.0573 76.7397 10.6094C76.7606 10.151 76.7814 9.71354 76.8022 9.29688C76.8231 8.86979 76.8335 8.55729 76.8335 8.35938C76.8335 8.25521 76.8387 8.14583 76.8491 8.03125C76.8491 7.9375 76.8491 7.83854 76.8491 7.73438C76.8595 7.61979 76.8647 7.51042 76.8647 7.40625L74.5991 7.39062L74.5054 6.5L76.7866 6.5625C76.7658 6.44792 76.7397 6.34375 76.7085 6.25C76.6877 6.14583 76.6668 6.0625 76.646 6C76.6147 5.92708 76.5835 5.86458 76.5522 5.8125C76.5106 5.76042 76.4637 5.70312 76.4116 5.64062C76.3595 5.58854 76.2918 5.52083 76.2085 5.4375C76.1252 5.35417 76.0262 5.26042 75.9116 5.15625ZM85.6147 12.4844C85.9064 12.4844 86.1772 12.4531 86.4272 12.3906C86.6356 12.3385 86.8335 12.2552 87.021 12.1406C87.2189 12.0156 87.3491 11.8333 87.4116 11.5938C87.62 11.6354 87.797 11.6719 87.9429 11.7031C88.0887 11.724 88.2137 11.7448 88.3179 11.7656C88.4325 11.7969 88.5314 11.8177 88.6147 11.8281C88.6981 11.849 88.797 11.8698 88.9116 11.8906C89.0158 11.9115 89.1408 11.9375 89.2866 11.9688C89.4429 11.9896 89.6252 12.0208 89.8335 12.0625C89.6772 12.0417 89.5158 12.0573 89.3491 12.1094C89.1929 12.1615 89.0418 12.2188 88.896 12.2812C88.7293 12.3542 88.5731 12.4427 88.4272 12.5469C88.3335 12.6094 88.2241 12.7031 88.0991 12.8281C87.9845 12.9531 87.8179 13.0729 87.5991 13.1875C87.3804 13.3021 87.0887 13.401 86.7241 13.4844C86.37 13.5573 85.9116 13.5833 85.3491 13.5625C84.672 13.5417 84.1043 13.4219 83.646 13.2031C83.1877 12.974 82.8179 12.6979 82.5366 12.375C82.2554 12.0417 82.0522 11.6823 81.9272 11.2969C81.8022 10.9115 81.7345 10.5521 81.7241 10.2188C81.7137 9.88542 81.8127 9.53646 82.021 9.17188C82.2293 8.80729 82.521 8.47396 82.896 8.17188C83.2814 7.86979 83.745 7.625 84.2866 7.4375C84.8283 7.23958 85.422 7.14062 86.0679 7.14062C86.4429 7.14062 86.7866 7.1875 87.0991 7.28125C87.422 7.36458 87.7137 7.47917 87.9741 7.625C88.245 7.77083 88.4793 7.9375 88.6772 8.125C88.8752 8.30208 89.0418 8.48438 89.1772 8.67188C89.3127 8.86979 89.4272 9.07812 89.521 9.29688C89.6043 9.48438 89.672 9.69792 89.7241 9.9375C89.7762 10.1771 89.7918 10.4219 89.771 10.6719C88.9793 10.6927 88.3387 10.7083 87.8491 10.7188C87.37 10.7292 86.995 10.7344 86.7241 10.7344H86.021H85.4897C85.3022 10.7344 85.0575 10.7396 84.7554 10.75C84.4533 10.7604 84.0835 10.776 83.646 10.7969C83.6981 11.2135 83.8283 11.5365 84.0366 11.7656C84.2554 11.9844 84.4845 12.151 84.7241 12.2656C84.995 12.3906 85.2918 12.4635 85.6147 12.4844ZM84.2085 9.67188C84.5418 9.69271 84.8179 9.70833 85.0366 9.71875C85.2658 9.72917 85.4533 9.73958 85.5991 9.75C85.7554 9.76042 85.8804 9.76562 85.9741 9.76562H86.3647C86.6252 9.76562 87.1095 9.75 87.8179 9.71875C87.7866 9.26042 87.6877 8.91146 87.521 8.67188C87.3647 8.43229 87.1981 8.25521 87.021 8.14062C86.8127 8.01562 86.5835 7.94271 86.3335 7.92188C85.6564 7.93229 85.1512 8.07292 84.8179 8.34375C84.495 8.61458 84.2918 9.05729 84.2085 9.67188ZM97.2866 6.07812C97.1929 6.30729 97.1095 6.51562 97.0366 6.70312C96.9741 6.89062 96.9168 7.05729 96.8647 7.20312C96.8127 7.36979 96.7658 7.51562 96.7241 7.64062C96.6825 7.78646 96.6356 7.95312 96.5835 8.14062C96.5314 8.30729 96.4637 8.51562 96.3804 8.76562C96.3075 9.00521 96.2189 9.29167 96.1147 9.625C96.0314 9.125 95.8804 8.72917 95.6616 8.4375C95.4429 8.13542 95.2189 7.90104 94.9897 7.73438C94.7189 7.54688 94.4272 7.41146 94.1147 7.32812C93.5522 7.23438 93.146 7.24479 92.896 7.35938C92.646 7.47396 92.4793 7.61979 92.396 7.79688C92.3543 7.86979 92.3075 7.96354 92.2554 8.07812C92.2137 8.18229 92.1772 8.29167 92.146 8.40625C92.1252 8.52083 92.12 8.63542 92.1304 8.75C92.1408 8.86458 92.1877 8.95833 92.271 9.03125C92.3231 9.08333 92.4585 9.15625 92.6772 9.25C92.896 9.33333 93.1564 9.43229 93.4585 9.54688C93.771 9.65104 94.0991 9.76562 94.4429 9.89062C94.797 10.0156 95.1304 10.1406 95.4429 10.2656C95.7554 10.3906 96.0262 10.5156 96.2554 10.6406C96.4845 10.7656 96.6356 10.8802 96.7085 10.9844C96.771 11.0885 96.8387 11.2292 96.9116 11.4062C96.995 11.5729 97.0522 11.7604 97.0835 11.9688C97.1252 12.1667 97.1356 12.375 97.1147 12.5938C97.1043 12.8021 97.047 13.0104 96.9429 13.2188C96.8387 13.4271 96.672 13.6198 96.4429 13.7969C96.2241 13.974 95.9272 14.1198 95.5522 14.2344C95.1147 14.3698 94.6929 14.4062 94.2866 14.3438C93.8804 14.2812 93.5054 14.1875 93.1616 14.0625C92.8283 13.9375 92.5366 13.8177 92.2866 13.7031C92.0366 13.5781 91.8595 13.526 91.7554 13.5469C91.6408 13.5677 91.5106 13.625 91.3647 13.7188C91.2189 13.8125 91.0783 13.9115 90.9429 14.0156C90.8179 14.1094 90.7085 14.1979 90.6147 14.2812C90.521 14.3542 90.4741 14.3802 90.4741 14.3594C90.4741 14.3385 90.4897 14.276 90.521 14.1719C90.5627 14.0677 90.6043 13.9427 90.646 13.7969C90.6981 13.6406 90.745 13.474 90.7866 13.2969C90.8387 13.1094 90.8752 12.9323 90.896 12.7656C90.9168 12.6302 90.9429 12.4635 90.9741 12.2656C90.995 12.0885 91.021 11.875 91.0522 11.625C91.0939 11.3646 91.1408 11.0521 91.1929 10.6875C91.245 10.9583 91.3179 11.1927 91.4116 11.3906C91.5158 11.5885 91.6147 11.7604 91.7085 11.9062C91.8231 12.0729 91.9325 12.2135 92.0366 12.3281C92.1929 12.474 92.3752 12.6094 92.5835 12.7344C92.8022 12.8594 93.021 12.9688 93.2397 13.0625C93.4585 13.1458 93.6668 13.1979 93.8647 13.2188C94.0627 13.2396 94.2293 13.2188 94.3647 13.1562C94.5002 13.0938 94.6147 12.9792 94.7085 12.8125C94.8127 12.6458 94.8856 12.4635 94.9272 12.2656C94.9689 12.0677 94.9845 11.8802 94.9741 11.7031C94.9637 11.5156 94.9168 11.3646 94.8335 11.25C94.771 11.1771 94.6252 11.0833 94.396 10.9688C94.1772 10.8542 93.9116 10.7292 93.5991 10.5938C93.297 10.4583 92.9741 10.3177 92.6304 10.1719C92.297 10.026 91.9793 9.88021 91.6772 9.73438C91.3856 9.57812 91.1408 9.43229 90.9429 9.29688C90.7554 9.15104 90.6512 9.02083 90.6304 8.90625C90.6095 8.73958 90.5939 8.55729 90.5835 8.35938C90.5731 8.15104 90.5835 7.94792 90.6147 7.75C90.6564 7.54167 90.7293 7.34375 90.8335 7.15625C90.9481 6.96875 91.1147 6.8125 91.3335 6.6875C91.4793 6.60417 91.672 6.54167 91.9116 6.5C92.1512 6.45833 92.4168 6.4375 92.7085 6.4375C93.0002 6.42708 93.3022 6.4375 93.6147 6.46875C93.9272 6.48958 94.2241 6.52083 94.5054 6.5625C94.797 6.59375 95.0575 6.63542 95.2866 6.6875C95.5262 6.73958 95.7085 6.78646 95.8335 6.82812C95.9793 6.88021 96.1356 6.88542 96.3022 6.84375C96.4481 6.8125 96.6043 6.74479 96.771 6.64062C96.9377 6.53646 97.1095 6.34896 97.2866 6.07812Z" fill="black"/>
<path d="M34.9253 0.685547C35.4858 0.753906 36.0532 0.801758 36.6274 0.829102C37.2153 0.856445 37.7485 0.870117 38.2271 0.870117C38.7876 0.870117 39.3345 0.856445 39.8677 0.829102C40.4146 0.81543 40.9888 0.788086 41.5903 0.74707C42.1099 0.719727 42.6978 0.685547 43.354 0.644531C44.0103 0.603516 44.6938 0.5625 45.4048 0.521484L45.5278 2.30566C45.5278 2.42871 45.5347 2.58594 45.5483 2.77734C45.5483 2.94141 45.5483 3.14648 45.5483 3.39258C45.562 3.63867 45.5757 3.92578 45.5894 4.25391C45.0972 4.67773 44.6528 5.08105 44.2563 5.46387C43.8735 5.83301 43.5454 6.16113 43.272 6.44824C42.9438 6.79004 42.6567 7.10449 42.4106 7.3916C42.0962 7.76074 41.7612 8.21191 41.4058 8.74512C41.0503 9.26465 40.7153 9.77734 40.4009 10.2832C40.1001 10.7754 39.854 11.2197 39.6626 11.6162C39.4712 11.999 39.3892 12.2383 39.4165 12.334C39.4302 12.4023 39.5669 12.4434 39.8267 12.457C40.0864 12.457 40.4009 12.4434 40.77 12.416C41.1528 12.3887 41.5698 12.3477 42.021 12.293C42.4858 12.2246 42.9165 12.1562 43.313 12.0879C43.7231 12.0059 44.0854 11.9238 44.3999 11.8418C44.7144 11.7598 44.9194 11.6777 45.0151 11.5957C45.1382 11.4863 45.2749 11.2881 45.4253 11.001C45.562 10.7549 45.7124 10.4131 45.8765 9.97559C46.0542 9.52441 46.2524 8.92285 46.4712 8.1709C46.4849 8.73145 46.4917 9.20996 46.4917 9.60645C46.5054 10.0029 46.5259 10.3379 46.5532 10.6113C46.5669 10.9258 46.5874 11.1855 46.6147 11.3906C46.6284 11.6094 46.6558 11.8555 46.6968 12.1289C46.7241 12.3613 46.7583 12.6553 46.7993 13.0107C46.8403 13.3662 46.895 13.7627 46.9634 14.2002C45.979 14.0771 45.1519 13.9951 44.4819 13.9541C43.812 13.8994 43.272 13.8652 42.8618 13.8516C42.3833 13.8379 42.0005 13.8379 41.7134 13.8516C41.4126 13.8926 41.0024 13.9541 40.4829 14.0361C40.0454 14.1045 39.4644 14.2139 38.7397 14.3643C38.0151 14.501 37.106 14.6855 36.0122 14.918C35.9849 14.6582 35.9575 14.4326 35.9302 14.2412C35.9028 14.0498 35.8755 13.8789 35.8481 13.7285C35.8208 13.5781 35.7935 13.4346 35.7661 13.2979C35.7388 13.1748 35.7046 13.0039 35.6636 12.7852C35.6362 12.5938 35.5884 12.3613 35.52 12.0879C35.4653 11.8008 35.397 11.4453 35.3149 11.0215C36.1353 10.1738 36.812 9.46289 37.3452 8.88867C37.8921 8.30078 38.3296 7.82227 38.6577 7.45312C39.0405 7.01562 39.3413 6.66699 39.5601 6.40723C39.7651 6.14746 40.0317 5.83301 40.3599 5.46387C40.6333 5.14941 40.9888 4.75977 41.4263 4.29492C41.8638 3.81641 42.3901 3.24902 43.0054 2.59277C42.3765 2.56543 41.7886 2.56543 41.2417 2.59277C40.7085 2.62012 40.2437 2.66113 39.8472 2.71582C39.3823 2.77051 38.9517 2.8457 38.5552 2.94141C38.186 3.05078 37.8101 3.22852 37.4272 3.47461C37.0991 3.67969 36.7437 3.9668 36.3608 4.33594C35.978 4.70508 35.6157 5.18359 35.2739 5.77148C35.2466 5.32031 35.2261 4.9375 35.2124 4.62305C35.1987 4.30859 35.1851 4.04883 35.1714 3.84375C35.1577 3.61133 35.144 3.41992 35.1304 3.26953C35.1304 3.11914 35.1167 2.9209 35.0894 2.6748C35.062 2.46973 35.0347 2.20996 35.0073 1.89551C34.98 1.56738 34.9526 1.16406 34.9253 0.685547Z" fill="white"/>
</svg>
